<svg width="13.000000" height="12.398438" viewBox="0 0 13 12.3984" fill="none" xmlns="http://www.w3.org/2000/svg" xmlns:xlink="http://www.w3.org/1999/xlink">
	<desc>
			Created with Pixso.
	</desc>
	<defs/>
	<path id="" d="M12.56 4.44C12.75 4.47 13 4.57 13 4.8C13 4.94 12.89 5.07 12.79 5.17L9.96 7.94L10.63 11.85C10.64 11.9 10.64 11.95 10.64 12C10.64 12.21 10.54 12.39 10.32 12.39C10.21 12.39 10.1 12.35 10 12.3L6.5 10.46L2.99 12.3C2.89 12.35 2.78 12.39 2.67 12.39C2.45 12.39 2.35 12.21 2.35 12C2.35 11.95 2.35 11.9 2.36 11.85L3.03 7.94L0.19 5.17C0.1 5.07 0 4.94 0 4.8C0 4.57 0.24 4.47 0.43 4.44L4.35 3.87L6.11 0.32C6.18 0.17 6.32 0 6.5 0C6.67 0 6.81 0.17 6.88 0.32L8.64 3.87L12.56 4.44Z" fill="#FFC816" fill-opacity="1.000000" fill-rule="evenodd"/>
</svg>
